<svg fill="currentColor" xmlns="http://www.w3.org/2000/svg" viewBox="0 0 164 25"><path d="M19.6 18.4l3.2 2.2-.8.8a12.2 12.2 0 01-8.8 3.6 12.5 12.5 0 01-11.4-7.3 12 12 0 01-1-4.9 11.9 11.9 0 013.7-8.6A12.9 12.9 0 0113.2.6a12.2 12.2 0 019.6 4.5l-3.2 2.2c-.9-1-1.8-1.6-2.9-2.1-1-.6-2.2-.8-3.5-.8a8.1 8.1 0 00-5.9 2.5A8.6 8.6 0 0010 20.6a8.5 8.5 0 009.7-2.2zm6.1 6.6V10h4.4v15h-4.4zm0-16.7h4.4V5h-4.4v3.3zm12.6 3.2a5.6 5.6 0 00-1.6 4V25h-4v-9.5a9 9 0 012.8-6.7A9.3 9.3 0 0142.3 6h2.6v3.8h-2.6c-1.6 0-3 .5-4 1.7zM62.2 21l-.4.6a9.4 9.4 0 01-7.3 3.3c-2.6 0-4.9-1-6.8-2.8a9 9 0 01-2.8-6.7c0-2.6 1-4.8 2.8-6.7A9.4 9.4 0 0154.5 6a9.4 9.4 0 017.7 3.9L59 12l-.6-.6a5.2 5.2 0 00-4-1.7 5.6 5.6 0 00-5.6 5.7 5.6 5.6 0 005.7 5.7c1.5 0 2.9-.5 4-1.6l.5-.7 3.2 2.2zm5.3-5.6c0 1.6.5 3 1.6 4a5.3 5.3 0 004 1.7c1.6 0 2.9-.5 4-1.7 1-1 1.6-2.4 1.6-4V6h4v9.5A9.5 9.5 0 0173 25c-2.6 0-4.9-1-6.8-2.8a9.2 9.2 0 01-2.8-6.7V6.1h4 v9.4zM97.8 25h-2c-2.6 0-4.9-1-6.7-2.7a9 9 0 01-2.9-6.7V6h4v9.6c0 1.5.5 2.8 1.6 4 1.1 1 2.5 1.7 4 1.7h2V25zm19.4 0h-3.7v-2h-.2v.2h-.1a9.4 9.4 0 01-5.6 1.8c-2.6 0-4.9-1-6.8-2.8a9 9 0 01-2.8-6.7c0-2.6 1-4.8 2.8-6.7a9.4 9.4 0 016.8-2.8c2.6 0 4.8 1 6.7 2.8a9.1 9.1 0 012.9 6.7V25zm-5.6-5.5c1-1 1.6-2.4 1.6-4 0-1.5-.5-2.9-1.6-4a5.2 5.2 0 00-4-1.7c-1.6 0-2.9.5-4 1.7a5.6 5.6 0 00-1.6 4c0 1.6.5 3 1.6 4 1.1 1.2 2.4 1.7 4 1.7s2.9-.5 4-1.7zm13.8-8a5.6 5.6 0 00-1.6 4V25h-4v-9.5a9 9 0 012.9-6.7 9.3 9.3 0 016.7-2.8h2.6v3.8h-2.6c-1.5 0-2.9.5-4 1.7zm17.4 2.1a5.7 5.7 0 015.2 3.5c.3.7.4 1.4.4 2.2 0 .8-.1 1.5-.4 2.2a6 6 0 01-1.2 1.8 5.5 5.5 0 01-4 1.7h-9.1v-3.7h9.2c.5 0 1-.3 1.3-.7.3-.3.5-.8.5-1.3s-.2-1-.6-1.3c-.3-.4-.8-.6-1.3-.6h-3.5c-.8 0-1.5-.2-2.2-.5-.7-.3-1.3-.7-1.8-1.2a5.7 5.7 0 011.8-9.2c.7-.3 1.4-.5 2.2-.5h5.3v3.8h-5.2a2 2 0 00-1.4.6c-.4.3-.6.8-.6 1.3s.2 1 .6 1.4c.4.3.8.5 1.3.5h3.4zm15.4 0a5.7 5.7 0 015.2 3.5 5.4 5.4 0 010 4.4 6 6 0 01-1.2 1.8 5.5 5.5 0 01-4 1.7h-9v-3.7h9.1c.5 0 1-.3 1.3-.7.4-.3.5-.8.5-1.3s-.2-1-.5-1.3c-.4-.4-.8-.6-1.4-.6h-3.5c-.8 0-1.5-.2-2.2-.5-.7-.3-1.3-.7-1.8-1.2a5.7 5.7 0 011.8-9.2c.7-.3 1.5-.5 2.3-.5h5.3v3.8h-5.3a2 2 0 00-1.4.6c-.4.3-.5.8-.5 1.3s.1 1 .5 1.4c.4.3.8.5 1.4.5h3.4z"/></svg>
